<mxfile host="app.diagrams.net" modified="2024-06-17T04:47:21.754Z" agent="Mozilla/5.0 (Windows NT 10.0; Win64; x64) AppleWebKit/537.36 (KHTML, like Gecko) Chrome/125.0.0.0 Safari/537.36 Edg/125.0.0.0" etag="Bu4R96Ovlt1jOU2F4o0G" version="24.5.4" type="github">
  <diagram name="Page-1" id="gKBzrEuFlncbepJpEGy0">
    <mxGraphModel dx="1052" dy="607" grid="1" gridSize="10" guides="1" tooltips="1" connect="1" arrows="1" fold="1" page="1" pageScale="1" pageWidth="827" pageHeight="1169" math="0" shadow="0">
      <root>
        <mxCell id="0" />
        <mxCell id="1" parent="0" />
        <mxCell id="wtpSRlOE1VbihlLfXaCM-31" style="edgeStyle=orthogonalEdgeStyle;rounded=0;orthogonalLoop=1;jettySize=auto;html=1;exitX=0.5;exitY=0.5;exitDx=0;exitDy=0;exitPerimeter=0;" edge="1" parent="1" source="wtpSRlOE1VbihlLfXaCM-1" target="wtpSRlOE1VbihlLfXaCM-24">
          <mxGeometry relative="1" as="geometry" />
        </mxCell>
        <mxCell id="wtpSRlOE1VbihlLfXaCM-32" style="edgeStyle=orthogonalEdgeStyle;rounded=0;orthogonalLoop=1;jettySize=auto;html=1;exitX=0.5;exitY=0.5;exitDx=0;exitDy=0;exitPerimeter=0;" edge="1" parent="1" source="wtpSRlOE1VbihlLfXaCM-1" target="wtpSRlOE1VbihlLfXaCM-20">
          <mxGeometry relative="1" as="geometry" />
        </mxCell>
        <mxCell id="wtpSRlOE1VbihlLfXaCM-1" value="Doctor" style="shape=umlActor;verticalLabelPosition=bottom;verticalAlign=top;html=1;outlineConnect=0;" vertex="1" parent="1">
          <mxGeometry x="180" y="240" width="30" height="60" as="geometry" />
        </mxCell>
        <mxCell id="wtpSRlOE1VbihlLfXaCM-33" style="edgeStyle=orthogonalEdgeStyle;rounded=0;orthogonalLoop=1;jettySize=auto;html=1;exitX=0.5;exitY=0.5;exitDx=0;exitDy=0;exitPerimeter=0;entryX=0;entryY=0.5;entryDx=0;entryDy=0;" edge="1" parent="1" source="wtpSRlOE1VbihlLfXaCM-3" target="wtpSRlOE1VbihlLfXaCM-21">
          <mxGeometry relative="1" as="geometry" />
        </mxCell>
        <mxCell id="wtpSRlOE1VbihlLfXaCM-34" style="edgeStyle=orthogonalEdgeStyle;rounded=0;orthogonalLoop=1;jettySize=auto;html=1;exitX=0.5;exitY=0.5;exitDx=0;exitDy=0;exitPerimeter=0;entryX=0;entryY=0.5;entryDx=0;entryDy=0;" edge="1" parent="1" source="wtpSRlOE1VbihlLfXaCM-3" target="wtpSRlOE1VbihlLfXaCM-22">
          <mxGeometry relative="1" as="geometry" />
        </mxCell>
        <mxCell id="wtpSRlOE1VbihlLfXaCM-35" style="edgeStyle=orthogonalEdgeStyle;rounded=0;orthogonalLoop=1;jettySize=auto;html=1;exitX=0.5;exitY=0.5;exitDx=0;exitDy=0;exitPerimeter=0;entryX=0;entryY=0.5;entryDx=0;entryDy=0;" edge="1" parent="1" source="wtpSRlOE1VbihlLfXaCM-3" target="wtpSRlOE1VbihlLfXaCM-18">
          <mxGeometry relative="1" as="geometry" />
        </mxCell>
        <mxCell id="wtpSRlOE1VbihlLfXaCM-3" value="Admin" style="shape=umlActor;verticalLabelPosition=bottom;verticalAlign=top;html=1;outlineConnect=0;" vertex="1" parent="1">
          <mxGeometry x="180" y="378.77000000000004" width="30" height="60" as="geometry" />
        </mxCell>
        <mxCell id="wtpSRlOE1VbihlLfXaCM-28" style="edgeStyle=orthogonalEdgeStyle;rounded=0;orthogonalLoop=1;jettySize=auto;html=1;exitX=0.5;exitY=0.5;exitDx=0;exitDy=0;exitPerimeter=0;entryX=0;entryY=0.5;entryDx=0;entryDy=0;" edge="1" parent="1" source="wtpSRlOE1VbihlLfXaCM-4" target="wtpSRlOE1VbihlLfXaCM-23">
          <mxGeometry relative="1" as="geometry" />
        </mxCell>
        <mxCell id="wtpSRlOE1VbihlLfXaCM-29" style="edgeStyle=orthogonalEdgeStyle;rounded=0;orthogonalLoop=1;jettySize=auto;html=1;exitX=0.5;exitY=0.5;exitDx=0;exitDy=0;exitPerimeter=0;entryX=0;entryY=0.5;entryDx=0;entryDy=0;" edge="1" parent="1" source="wtpSRlOE1VbihlLfXaCM-4" target="wtpSRlOE1VbihlLfXaCM-17">
          <mxGeometry relative="1" as="geometry" />
        </mxCell>
        <mxCell id="wtpSRlOE1VbihlLfXaCM-30" style="edgeStyle=orthogonalEdgeStyle;rounded=0;orthogonalLoop=1;jettySize=auto;html=1;exitX=0.5;exitY=0.5;exitDx=0;exitDy=0;exitPerimeter=0;entryX=0;entryY=0.5;entryDx=0;entryDy=0;" edge="1" parent="1" source="wtpSRlOE1VbihlLfXaCM-4" target="wtpSRlOE1VbihlLfXaCM-19">
          <mxGeometry relative="1" as="geometry" />
        </mxCell>
        <mxCell id="wtpSRlOE1VbihlLfXaCM-4" value="Patient" style="shape=umlActor;verticalLabelPosition=bottom;verticalAlign=top;html=1;outlineConnect=0;" vertex="1" parent="1">
          <mxGeometry x="180" y="101.22999999999999" width="30" height="50" as="geometry" />
        </mxCell>
        <object placeholders="1" c4Name="Traditional Medicine and Spa Center" c4Type="TraditionalMedicineandSpaCenter" c4Application="Patient Registration System" label="&lt;font style=&quot;font-size: 16px&quot;&gt;&lt;b&gt;&lt;div style=&quot;text-align: left&quot;&gt;%c4Name%&lt;/div&gt;&lt;/b&gt;&lt;/font&gt;&lt;div style=&quot;text-align: left&quot;&gt;[%c4Application%]&lt;/div&gt;" id="wtpSRlOE1VbihlLfXaCM-15">
          <mxCell style="rounded=1;fontSize=11;whiteSpace=wrap;html=1;dashed=1;arcSize=20;fillColor=none;strokeColor=#666666;fontColor=#333333;labelBackgroundColor=none;align=left;verticalAlign=bottom;labelBorderColor=none;spacingTop=0;spacing=10;dashPattern=8 4;metaEdit=1;rotatable=0;perimeter=rectanglePerimeter;noLabel=0;labelPadding=0;allowArrows=0;connectable=0;expand=0;recursiveResize=0;editable=1;pointerEvents=0;absoluteArcSize=1;points=[[0.25,0,0],[0.5,0,0],[0.75,0,0],[1,0.25,0],[1,0.5,0],[1,0.75,0],[0.75,1,0],[0.5,1,0],[0.25,1,0],[0,0.75,0],[0,0.5,0],[0,0.25,0]];container=0;" vertex="1" parent="1">
            <mxGeometry x="320" y="40" width="200" height="570" as="geometry" />
          </mxCell>
        </object>
        <mxCell id="wtpSRlOE1VbihlLfXaCM-17" value="Register" style="ellipse;whiteSpace=wrap;html=1;container=0;" vertex="1" parent="1">
          <mxGeometry x="391.92" y="60" width="56.15" height="26.32" as="geometry" />
        </mxCell>
        <mxCell id="wtpSRlOE1VbihlLfXaCM-18" value="Manage Appointments" style="ellipse;whiteSpace=wrap;html=1;container=0;" vertex="1" parent="1">
          <mxGeometry x="371.54" y="480" width="96.92" height="43.86" as="geometry" />
        </mxCell>
        <mxCell id="wtpSRlOE1VbihlLfXaCM-19" value="Book Appointment" style="ellipse;whiteSpace=wrap;html=1;container=0;" vertex="1" parent="1">
          <mxGeometry x="370.38000000000005" y="160" width="99.23" height="35.09" as="geometry" />
        </mxCell>
        <mxCell id="wtpSRlOE1VbihlLfXaCM-20" value="Update Medical Records" style="ellipse;whiteSpace=wrap;html=1;container=0;" vertex="1" parent="1">
          <mxGeometry x="367.69" y="290" width="104.62" height="43.86" as="geometry" />
        </mxCell>
        <mxCell id="wtpSRlOE1VbihlLfXaCM-21" value="Manage Doctors" style="ellipse;whiteSpace=wrap;html=1;container=0;" vertex="1" parent="1">
          <mxGeometry x="379.23" y="360" width="81.54" height="35.09" as="geometry" />
        </mxCell>
        <mxCell id="wtpSRlOE1VbihlLfXaCM-22" value="Manage Patients" style="ellipse;whiteSpace=wrap;html=1;container=0;" vertex="1" parent="1">
          <mxGeometry x="376.15000000000003" y="420" width="87.69" height="35.09" as="geometry" />
        </mxCell>
        <mxCell id="wtpSRlOE1VbihlLfXaCM-23" value="Login" style="ellipse;whiteSpace=wrap;html=1;container=0;" vertex="1" parent="1">
          <mxGeometry x="391.92" y="110" width="56.15" height="26.32" as="geometry" />
        </mxCell>
        <mxCell id="wtpSRlOE1VbihlLfXaCM-24" value="View Appointments" style="ellipse;whiteSpace=wrap;html=1;container=0;" vertex="1" parent="1">
          <mxGeometry x="371.54" y="220" width="96.92" height="40.88" as="geometry" />
        </mxCell>
      </root>
    </mxGraphModel>
  </diagram>
</mxfile>
